<?xml version="1.0" standalone="no"?>
<svg xmlns:xlink="http://www.w3.org/1999/xlink" id="wave" style="transform:rotate(180deg); transition: 0.3s" viewBox="0 0 1440 130" version="1.1" xmlns="http://www.w3.org/2000/svg"><defs><linearGradient id="sw-gradient-0" x1="0" x2="0" y1="1" y2="0"><stop stop-color="rgba(243, 106, 62, 1)" offset="0%"/><stop stop-color="rgba(255, 179, 11, 1)" offset="100%"/></linearGradient></defs><path style="transform:translate(0, 0px); opacity:1" fill="url(#sw-gradient-0)" d="M0,39L17.1,49.8C34.3,61,69,82,103,82.3C137.1,82,171,61,206,54.2C240,48,274,56,309,62.8C342.9,69,377,74,411,69.3C445.7,65,480,52,514,52C548.6,52,583,65,617,62.8C651.4,61,686,43,720,34.7C754.3,26,789,26,823,36.8C857.1,48,891,69,926,67.2C960,65,994,39,1029,36.8C1062.9,35,1097,56,1131,56.3C1165.7,56,1200,35,1234,32.5C1268.6,30,1303,48,1337,54.2C1371.4,61,1406,56,1440,47.7C1474.3,39,1509,26,1543,21.7C1577.1,17,1611,22,1646,32.5C1680,43,1714,61,1749,71.5C1782.9,82,1817,87,1851,75.8C1885.7,65,1920,39,1954,39C1988.6,39,2023,65,2057,78C2091.4,91,2126,91,2160,78C2194.3,65,2229,39,2263,43.3C2297.1,48,2331,82,2366,93.2C2400,104,2434,91,2451,84.5L2468.6,78L2468.6,130L2451.4,130C2434.3,130,2400,130,2366,130C2331.4,130,2297,130,2263,130C2228.6,130,2194,130,2160,130C2125.7,130,2091,130,2057,130C2022.9,130,1989,130,1954,130C1920,130,1886,130,1851,130C1817.1,130,1783,130,1749,130C1714.3,130,1680,130,1646,130C1611.4,130,1577,130,1543,130C1508.6,130,1474,130,1440,130C1405.7,130,1371,130,1337,130C1302.9,130,1269,130,1234,130C1200,130,1166,130,1131,130C1097.1,130,1063,130,1029,130C994.3,130,960,130,926,130C891.4,130,857,130,823,130C788.6,130,754,130,720,130C685.7,130,651,130,617,130C582.9,130,549,130,514,130C480,130,446,130,411,130C377.1,130,343,130,309,130C274.3,130,240,130,206,130C171.4,130,137,130,103,130C68.6,130,34,130,17,130L0,130Z"/></svg>